<svg xmlns="http://www.w3.org/2000/svg" version="1.1" xmlns:xlink="http://www.w3.org/1999/xlink" xmlns:svgjs="http://svgjs.dev/svgjs" width="2000" height="919" viewBox="0 0 2000 919"><g transform="matrix(1,0,0,1,-1.2121212121212466,0.8727530336821587)"><svg viewBox="0 0 396 182" data-background-color="#ffffff" preserveAspectRatio="xMidYMid meet" height="919" width="2000" xmlns="http://www.w3.org/2000/svg" xmlns:xlink="http://www.w3.org/1999/xlink"><g id="tight-bounds" transform="matrix(1,0,0,1,0.2400000000000091,-0.17284118838972518)"><svg viewBox="0 0 395.52 182.34568237677945" height="182.34568237677945" width="395.52"><g><svg viewBox="0 0 395.52 182.34568237677945" height="182.34568237677945" width="395.52"><g><svg viewBox="0 0 395.52 182.34568237677945" height="182.34568237677945" width="395.52"><g id="textblocktransform"><svg viewBox="0 0 395.52 182.34568237677945" height="182.34568237677945" width="395.52" id="textblock"><g><svg viewBox="0 0 395.52 145.05401567390072" height="145.05401567390072" width="395.52"><rect width="395.52" height="145.05401567390072" x="0" y="0" opacity="1" fill="#000000" data-fill-palette-color="tertiary"></rect><g transform="matrix(1,0,0,1,23.461705032,23.46170503200001)"><svg width="348.596589936" viewBox="1.27 -32.4 115.08 32.4" height="98.13060560990071" data-palette-color="#ffffff"><path d="M5.2-25.34L5.2-32.4 30.88-32.4 30.88-6.47 24.41 0 20.09 0 20.09-25.34 5.2-25.34ZM12.48-13.57L12.48-6.47 18.38-6.47 18.38 0 7.76 0 1.27-6.47 1.27-13.57 12.48-13.57ZM59.45 0L40.4-22.07 40.38-22.09 40.38-26.93 45.9-32.4 50.75-32.4 50.75-23.93 59.3-14.01 66.65-19.73 71.97-13.57 64.74-7.69 71.38 0 59.45 0ZM54.81 0L42.55 0 37.11-5.35 37.11-13.16 41.77-17.97 46.8-12.11 46.8-6.23 51.95-6.23 56.2-1.2 54.81 0ZM61.33-32.4L66.75-26.98 66.75-22.68 56.61-22.68 56.61-25.93 52.46-25.93 52.46-32.4 61.33-32.4ZM96.19 0L76.97-32.4 88.45-32.4 97.14-17.99 103.97-29.71 103.97-13.4 96.19 0ZM116.35 0L105.56 0 105.56-32.4 116.35-32.4 116.35 0ZM87.03 0L76.95 0 76.95-29.39 87.03-12.48 87.03 0Z" opacity="1" transform="matrix(1,0,0,1,0,0)" fill="#ffffff" class="wordmark-text-0" data-fill-palette-color="quaternary" id="text-0"></path></svg></g></svg></g><g transform="matrix(1,0,0,1,75.54432,156.78486818990072)"><svg viewBox="0 0 244.43135999999998 25.560814186878726" height="25.560814186878726" width="244.43135999999998"><g transform="matrix(1,0,0,1,0,0)"><svg width="244.43135999999998" viewBox="1.35 -38.6 377.22999999999996 39.45" height="25.560814186878726" data-palette-color="#000000"><path d="M30.3 0L26.2-11.05 10.4-11.05 6.35 0 1.35 0 15.6-38.35 21-38.35 35.3 0 30.3 0ZM12.05-15.4L24.55-15.4 18.3-32.3 12.05-15.4ZM56.2 0.85Q48.95 0.85 45.35-2.83 41.75-6.5 41.75-13.25L41.75-13.25 41.75-37.9 46.65-37.9 46.65-13.25Q46.65-8.4 49.05-5.9 51.45-3.4 56.2-3.4L56.2-3.4Q60.95-3.4 63.35-5.9 65.75-8.4 65.75-13.25L65.75-13.25 65.75-37.9 70.65-37.9 70.65-13.25Q70.65-6.5 67.05-2.83 63.45 0.85 56.2 0.85L56.2 0.85ZM105.5-37.9L105.5-33.55 94.1-33.55 94.1 0 89.2 0 89.2-33.55 77.8-33.55 77.8-37.9 105.5-37.9ZM128.39 0.85Q122.54 0.85 118.47-1.73 114.39-4.3 112.34-8.78 110.29-13.25 110.29-18.9L110.29-18.9Q110.29-24.45 112.34-28.9 114.39-33.35 118.47-35.98 122.54-38.6 128.39-38.6L128.39-38.6Q134.19-38.6 138.24-35.98 142.29-33.35 144.37-28.88 146.44-24.4 146.44-18.9L146.44-18.9Q146.44-13.25 144.39-8.78 142.34-4.3 138.27-1.73 134.19 0.85 128.39 0.85L128.39 0.85ZM128.39-3.4Q132.49-3.4 135.44-5.45 138.39-7.5 139.92-11.05 141.44-14.6 141.44-19.05L141.44-19.05Q141.44-23.35 139.89-26.83 138.34-30.3 135.39-32.33 132.44-34.35 128.39-34.35L128.39-34.35Q124.19-34.35 121.24-32.3 118.29-30.25 116.79-26.75 115.29-23.25 115.29-18.9L115.29-18.9Q115.29-14.45 116.79-10.95 118.29-7.45 121.24-5.43 124.19-3.4 128.39-3.4L128.39-3.4ZM184.64-37.9L189.99-37.9 189.99 0 185.14 0 185.14-30.55 173.54-14.4 170.99-14.4 159.49-30.55 159.49 0 154.64 0 154.64-37.9 159.94-37.9 172.29-20.6 184.64-37.9ZM216.24 0.85Q210.39 0.85 206.31-1.73 202.24-4.3 200.19-8.78 198.14-13.25 198.14-18.9L198.14-18.9Q198.14-24.45 200.19-28.9 202.24-33.35 206.31-35.98 210.39-38.6 216.24-38.6L216.24-38.6Q222.04-38.6 226.09-35.98 230.14-33.35 232.21-28.88 234.29-24.4 234.29-18.9L234.29-18.9Q234.29-13.25 232.24-8.78 230.19-4.3 226.11-1.73 222.04 0.85 216.24 0.85L216.24 0.85ZM216.24-3.4Q220.34-3.4 223.29-5.45 226.24-7.5 227.76-11.05 229.29-14.6 229.29-19.05L229.29-19.05Q229.29-23.35 227.74-26.83 226.19-30.3 223.24-32.33 220.29-34.35 216.24-34.35L216.24-34.35Q212.04-34.35 209.09-32.3 206.14-30.25 204.64-26.75 203.14-23.25 203.14-18.9L203.14-18.9Q203.14-14.45 204.64-10.95 206.14-7.45 209.09-5.43 212.04-3.4 216.24-3.4L216.24-3.4ZM267.69-37.9L272.74-37.9 258.49 0.45 253.09 0.45 238.79-37.9 243.89-37.9 255.79-5.6 267.69-37.9ZM279.78 0L279.78-37.9 284.63-37.9 284.63 0 279.78 0ZM300.18-4.35L316.03-4.35 316.03 0 295.33 0 295.33-37.9 300.18-37.9 300.18-4.35ZM328.23-4.2L346.58-4.2 346.58 0 323.38 0 323.38-37.9 346.33-37.9 346.33-33.7 328.23-33.7 328.23-21.15 343.83-21.15 343.83-16.95 328.23-16.95 328.23-4.2ZM365.68 0.85Q358.43 0.85 352.73-1.85L352.73-1.85 352.73-6.45Q358.48-3.4 365.68-3.4L365.68-3.4Q369.83-3.4 371.75-5.15 373.68-6.9 373.68-9.75L373.68-9.75Q373.68-12.45 371.9-13.8 370.13-15.15 366.68-16.15L366.68-16.15 363.28-17.1Q360.38-17.95 358.33-19.05 356.28-20.15 354.9-22.23 353.53-24.3 353.53-27.65L353.53-27.65Q353.53-33 356.65-35.8 359.78-38.6 365.53-38.6L365.53-38.6Q368.88-38.6 371.43-37.98 373.98-37.35 376.73-36.1L376.73-36.1 376.73-31.6Q371.63-34.35 365.53-34.35L365.53-34.35Q361.83-34.35 360.13-32.63 358.43-30.9 358.43-27.9L358.43-27.9Q358.48-25.15 360.1-23.85 361.73-22.55 365.18-21.55L365.18-21.55 368.63-20.6Q371.68-19.75 373.8-18.63 375.93-17.5 377.25-15.38 378.58-13.25 378.58-9.85L378.58-9.85Q378.53-4.9 375.1-2.02 371.68 0.85 365.68 0.85L365.68 0.85Z" opacity="1" transform="matrix(1,0,0,1,0,0)" fill="#000000" class="slogan-text-1" data-fill-palette-color="secondary" id="text-1"></path></svg></g></svg></g></svg></g></svg></g></svg></g><defs></defs></svg><rect width="395.52" height="182.34568237677945" fill="none" stroke="none" visibility="hidden"></rect></g></svg></g></svg>