<svg xmlns="http://www.w3.org/2000/svg" version="1.1" xmlns:xlink="http://www.w3.org/1999/xlink" xmlns:svgjs="http://svgjs.dev/svgjs" width="2000" height="984" viewBox="0 0 2000 984"><g transform="matrix(1,0,0,1,-1.2121212121212466,0.4318691379495476)"><svg viewBox="0 0 396 195" data-background-color="#ffffff" preserveAspectRatio="xMidYMid meet" height="984" width="2000" xmlns="http://www.w3.org/2000/svg" xmlns:xlink="http://www.w3.org/1999/xlink"><g id="tight-bounds" transform="matrix(1,0,0,1,0.2400000000000091,-0.08558382306927115)"><svg viewBox="0 0 395.52 195.17116764613854" height="195.17116764613854" width="395.52"><g><svg viewBox="0 0 395.52 195.17116764613854" height="195.17116764613854" width="395.52"><g><svg viewBox="0 0 395.52 195.17116764613854" height="195.17116764613854" width="395.52"><g id="textblocktransform"><svg viewBox="0 0 395.52 195.17116764613854" height="195.17116764613854" width="395.52" id="textblock"><g><svg viewBox="0 0 395.52 159.63970510422223" height="159.63970510422223" width="395.52"><rect width="395.52" height="159.63970510422223" x="0" y="0" opacity="1" fill="#000000" data-fill-palette-color="tertiary"></rect><g transform="matrix(1,0,0,1,23.461705032,23.46170503200001)"><svg width="348.596589936" viewBox="1.27 -32.4 100.19 32.4" height="112.71629504022222" data-palette-color="#ffffff"><path d="M1.27 0L1.27-6.05 22.44-32.4 29.76-32.4 29.76-26.12 8.37 0 1.27 0ZM29.32-7.1L29.32 0 10.55 0 16.7-7.1 29.32-7.1ZM1.93-25.32L1.93-32.4 20.31-32.4 14.18-25.32 1.93-25.32ZM57.05 0L38.01-22.07 37.99-22.09 37.99-26.93 43.5-32.4 48.36-32.4 48.36-23.93 56.91-14.01 64.26-19.73 69.58-13.57 62.35-7.69 68.99 0 57.05 0ZM52.41 0L40.16 0 34.71-5.35 34.71-13.16 39.38-17.97 44.41-12.11 44.41-6.23 49.56-6.23 53.81-1.2 52.41 0ZM58.93-32.4L64.35-26.98 64.35-22.68 54.22-22.68 54.22-25.93 50.07-25.93 50.07-32.4 58.93-32.4ZM72.97 0L72.97-6.05 94.14-32.4 101.46-32.4 101.46-26.12 80.07 0 72.97 0ZM101.02-7.1L101.02 0 82.25 0 88.4-7.1 101.02-7.1ZM73.63-25.32L73.63-32.4 92.01-32.4 85.88-25.32 73.63-25.32Z" opacity="1" transform="matrix(1,0,0,1,0,0)" fill="#ffffff" class="wordmark-text-0" data-fill-palette-color="quaternary" id="text-0"></path></svg></g></svg></g><g transform="matrix(1,0,0,1,75.54432000000001,171.37055762022223)"><svg viewBox="0 0 244.43135999999996 23.800610025916324" height="23.800610025916324" width="244.43135999999996"><g transform="matrix(1,0,0,1,0,0)"><svg width="244.43135999999996" viewBox="1.35 -38.6 405.13 39.45" height="23.800610025916324" data-palette-color="#000000"><path d="M30.3 0L26.2-11.05 10.4-11.05 6.35 0 1.35 0 15.6-38.35 21-38.35 35.3 0 30.3 0ZM12.05-15.4L24.55-15.4 18.3-32.3 12.05-15.4ZM56.2 0.85Q48.95 0.85 45.35-2.83 41.75-6.5 41.75-13.25L41.75-13.25 41.75-37.9 46.65-37.9 46.65-13.25Q46.65-8.4 49.05-5.9 51.45-3.4 56.2-3.4L56.2-3.4Q60.95-3.4 63.35-5.9 65.75-8.4 65.75-13.25L65.75-13.25 65.75-37.9 70.65-37.9 70.65-13.25Q70.65-6.5 67.05-2.83 63.45 0.85 56.2 0.85L56.2 0.85ZM105.5-37.9L105.5-33.55 94.1-33.55 94.1 0 89.2 0 89.2-33.55 77.8-33.55 77.8-37.9 105.5-37.9ZM128.39 0.85Q122.54 0.85 118.47-1.73 114.39-4.3 112.34-8.78 110.29-13.25 110.29-18.9L110.29-18.9Q110.29-24.45 112.34-28.9 114.39-33.35 118.47-35.98 122.54-38.6 128.39-38.6L128.39-38.6Q134.19-38.6 138.24-35.98 142.29-33.35 144.37-28.88 146.44-24.4 146.44-18.9L146.44-18.9Q146.44-13.25 144.39-8.78 142.34-4.3 138.27-1.73 134.19 0.85 128.39 0.85L128.39 0.85ZM128.39-3.4Q132.49-3.4 135.44-5.45 138.39-7.5 139.92-11.05 141.44-14.6 141.44-19.05L141.44-19.05Q141.44-23.35 139.89-26.83 138.34-30.3 135.39-32.33 132.44-34.35 128.39-34.35L128.39-34.35Q124.19-34.35 121.24-32.3 118.29-30.25 116.79-26.75 115.29-23.25 115.29-18.9L115.29-18.9Q115.29-14.45 116.79-10.95 118.29-7.45 121.24-5.43 124.19-3.4 128.39-3.4L128.39-3.4ZM184.64-37.9L189.99-37.9 189.99 0 185.14 0 185.14-30.55 173.54-14.4 170.99-14.4 159.49-30.55 159.49 0 154.64 0 154.64-37.9 159.94-37.9 172.29-20.6 184.64-37.9ZM216.24 0.85Q210.39 0.85 206.31-1.73 202.24-4.3 200.19-8.78 198.14-13.25 198.14-18.9L198.14-18.9Q198.14-24.45 200.19-28.9 202.24-33.35 206.31-35.98 210.39-38.6 216.24-38.6L216.24-38.6Q222.04-38.6 226.09-35.98 230.14-33.35 232.21-28.88 234.29-24.4 234.29-18.9L234.29-18.9Q234.29-13.25 232.24-8.78 230.19-4.3 226.11-1.73 222.04 0.85 216.24 0.85L216.24 0.85ZM216.24-3.4Q220.34-3.4 223.29-5.45 226.24-7.5 227.76-11.05 229.29-14.6 229.29-19.05L229.29-19.05Q229.29-23.35 227.74-26.83 226.19-30.3 223.24-32.33 220.29-34.35 216.24-34.35L216.24-34.35Q212.04-34.35 209.09-32.3 206.14-30.25 204.64-26.75 203.14-23.25 203.14-18.9L203.14-18.9Q203.14-14.45 204.64-10.95 206.14-7.45 209.09-5.43 212.04-3.4 216.24-3.4L216.24-3.4ZM266.84-37.9L266.84-33.55 255.44-33.55 255.44 0 250.54 0 250.54-33.55 239.14-33.55 239.14-37.9 266.84-37.9ZM289.73 0.85Q283.88 0.85 279.81-1.73 275.73-4.3 273.68-8.78 271.63-13.25 271.63-18.9L271.63-18.9Q271.63-24.45 273.68-28.9 275.73-33.35 279.81-35.98 283.88-38.6 289.73-38.6L289.73-38.6Q295.53-38.6 299.58-35.98 303.63-33.35 305.71-28.88 307.78-24.4 307.78-18.9L307.78-18.9Q307.78-13.25 305.73-8.78 303.68-4.3 299.61-1.73 295.53 0.85 289.73 0.85L289.73 0.85ZM289.73-3.4Q293.83-3.4 296.78-5.45 299.73-7.5 301.26-11.05 302.78-14.6 302.78-19.05L302.78-19.05Q302.78-23.35 301.23-26.83 299.68-30.3 296.73-32.33 293.78-34.35 289.73-34.35L289.73-34.35Q285.53-34.35 282.58-32.3 279.63-30.25 278.13-26.75 276.63-23.25 276.63-18.9L276.63-18.9Q276.63-14.45 278.13-10.95 279.63-7.45 282.58-5.43 285.53-3.4 289.73-3.4L289.73-3.4ZM337.93 0L328.18-16.05 320.83-16.05 320.83 0 315.98 0 315.98-37.9 329.23-37.9Q341.63-37.9 341.63-26.9L341.63-26.9Q341.63-22.55 339.56-19.88 337.48-17.2 333.33-16.4L333.33-16.4 343.48 0 337.93 0ZM320.83-33.65L320.83-20.3 329.23-20.3Q336.63-20.3 336.68-26.9L336.68-26.9Q336.68-30.4 334.83-32.02 332.98-33.65 329.23-33.65L329.23-33.65 320.83-33.65ZM356.13-4.2L374.48-4.2 374.48 0 351.28 0 351.28-37.9 374.23-37.9 374.23-33.7 356.13-33.7 356.13-21.15 371.73-21.15 371.73-16.95 356.13-16.95 356.13-4.2ZM393.58 0.85Q386.33 0.85 380.63-1.85L380.63-1.85 380.63-6.45Q386.38-3.4 393.58-3.4L393.58-3.4Q397.73-3.4 399.65-5.15 401.58-6.9 401.58-9.75L401.58-9.75Q401.58-12.45 399.8-13.8 398.03-15.15 394.58-16.15L394.58-16.15 391.18-17.1Q388.28-17.95 386.23-19.05 384.18-20.15 382.8-22.23 381.43-24.3 381.43-27.65L381.43-27.65Q381.43-33 384.55-35.8 387.68-38.6 393.43-38.6L393.43-38.6Q396.78-38.6 399.33-37.98 401.88-37.35 404.63-36.1L404.63-36.1 404.63-31.6Q399.53-34.35 393.43-34.35L393.43-34.35Q389.73-34.35 388.03-32.63 386.33-30.9 386.33-27.9L386.33-27.9Q386.38-25.15 388-23.85 389.63-22.55 393.08-21.55L393.08-21.55 396.53-20.6Q399.58-19.75 401.7-18.63 403.83-17.5 405.15-15.38 406.48-13.25 406.48-9.85L406.48-9.85Q406.43-4.9 403-2.02 399.58 0.85 393.58 0.85L393.58 0.85Z" opacity="1" transform="matrix(1,0,0,1,0,0)" fill="#000000" class="slogan-text-1" data-fill-palette-color="secondary" id="text-1"></path></svg></g></svg></g></svg></g></svg></g></svg></g><defs></defs></svg><rect width="395.52" height="195.17116764613854" fill="none" stroke="none" visibility="hidden"></rect></g></svg></g></svg>